<?xml version="1.0" standalone="no"?>
<!DOCTYPE svg PUBLIC "-//W3C//DTD SVG 20010904//EN"
 "http://www.w3.org/TR/2001/REC-SVG-20010904/DTD/svg10.dtd">
<svg version="1.0" xmlns="http://www.w3.org/2000/svg"
 width="100.000000pt" height="100.000000pt" viewBox="0 0 100.000000 100.000000"
 preserveAspectRatio="xMidYMid meet">
<metadata>
Created by potrace 1.14, written by Peter Selinger 2001-2017
</metadata>
<g transform="translate(0.000000,100.000000) scale(0.100000,-0.100000)"
fill="#000000" stroke="none">
<path d="M435 738 c-99 -66 -181 -122 -182 -126 -2 -4 8 -20 20 -36 l23 -29
150 100 c82 55 154 102 161 106 6 4 74 -39 155 -98 l143 -106 23 26 c12 14 22
30 22 34 0 7 -252 197 -310 233 -24 15 -29 13 -205 -104z"/>
<path d="M86 643 c-3 -3 -6 -80 -6 -170 l0 -163 123 0 124 0 1 30 c0 17 -5 31
-11 31 -7 1 -45 2 -86 3 l-73 1 -2 135 -1 134 -31 3 c-17 1 -34 0 -38 -4z"/>
<path d="M393 559 c-37 -11 -37 -10 -22 -43 10 -21 15 -23 36 -15 42 16 91 11
103 -10 5 -11 10 -22 10 -24 0 -3 -30 -7 -66 -9 -55 -3 -70 -8 -86 -28 -26
-32 -20 -78 13 -103 29 -21 104 -26 122 -8 14 14 30 14 22 1 -4 -6 9 -10 33
-10 l39 0 -2 95 c-2 103 -16 138 -61 155 -31 12 -98 11 -141 -1z m127 -154 c0
-8 -9 -24 -20 -35 -16 -16 -24 -18 -50 -9 -53 19 -35 54 30 57 30 2 40 -1 40
-13z"/>
<path d="M661 440 l1 -130 39 0 39 0 -1 76 c-1 83 14 114 56 114 16 0 24 7 27
23 9 49 -13 59 -66 32 -25 -13 -27 -13 -22 0 4 12 -3 15 -35 15 l-40 0 2 -130z"/>
</g>
</svg>
