<svg width="93" height="79" viewBox="0 0 93 79" fill="none" xmlns="http://www.w3.org/2000/svg">
<rect width="93" height="79" fill="#ECECEC"/>
<path d="M-105.96 67V33.4H-101.16V62.824H-82.968V67H-105.96ZM-67.5641 67.288C-70.1241 67.288 -72.3961 66.728 -74.3801 65.608C-76.3641 64.488 -77.9321 62.952 -79.0841 61C-80.2361 59.016 -80.8121 56.776 -80.8121 54.28C-80.8121 51.752 -80.2361 49.512 -79.0841 47.56C-77.9321 45.608 -76.3641 44.088 -74.3801 43C-72.3961 41.88 -70.1241 41.32 -67.5641 41.32C-65.0361 41.32 -62.7801 41.88 -60.7961 43C-58.7801 44.088 -57.2121 45.608 -56.0921 47.56C-54.9401 49.48 -54.3641 51.72 -54.3641 54.28C-54.3641 56.808 -54.9401 59.048 -56.0921 61C-57.2121 62.952 -58.7801 64.488 -60.7961 65.608C-62.7801 66.728 -65.0361 67.288 -67.5641 67.288ZM-67.5641 63.256C-65.9321 63.256 -64.4761 62.888 -63.1961 62.152C-61.8841 61.416 -60.8601 60.376 -60.1241 59.032C-59.3881 57.656 -59.0201 56.072 -59.0201 54.28C-59.0201 52.456 -59.3881 50.888 -60.1241 49.576C-60.8601 48.232 -61.8841 47.192 -63.1961 46.456C-64.4761 45.72 -65.9321 45.352 -67.5641 45.352C-69.1961 45.352 -70.6521 45.72 -71.9321 46.456C-73.2121 47.192 -74.2361 48.232 -75.0041 49.576C-75.7721 50.888 -76.1561 52.456 -76.1561 54.28C-76.1561 56.072 -75.7721 57.656 -75.0041 59.032C-74.2361 60.376 -73.2121 61.416 -71.9321 62.152C-70.6521 62.888 -69.1961 63.256 -67.5641 63.256ZM-36.9034 67.288C-39.4954 67.288 -41.8154 66.728 -43.8634 65.608C-45.8794 64.488 -47.4634 62.952 -48.6154 61C-49.7674 59.048 -50.3434 56.808 -50.3434 54.28C-50.3434 51.752 -49.7674 49.512 -48.6154 47.56C-47.4634 45.608 -45.8794 44.088 -43.8634 43C-41.8154 41.88 -39.4954 41.32 -36.9034 41.32C-34.5994 41.32 -32.5514 41.784 -30.7594 42.712C-28.9354 43.608 -27.5274 44.952 -26.5354 46.744L-30.0394 49C-30.8714 47.752 -31.8954 46.84 -33.1114 46.264C-34.2954 45.656 -35.5754 45.352 -36.9514 45.352C-38.6154 45.352 -40.1034 45.72 -41.4154 46.456C-42.7274 47.192 -43.7674 48.232 -44.5354 49.576C-45.3034 50.888 -45.6874 52.456 -45.6874 54.28C-45.6874 56.104 -45.3034 57.688 -44.5354 59.032C-43.7674 60.376 -42.7274 61.416 -41.4154 62.152C-40.1034 62.888 -38.6154 63.256 -36.9514 63.256C-35.5754 63.256 -34.2954 62.968 -33.1114 62.392C-31.8954 61.784 -30.8714 60.856 -30.0394 59.608L-26.5354 61.816C-27.5274 63.576 -28.9354 64.936 -30.7594 65.896C-32.5514 66.824 -34.5994 67.288 -36.9034 67.288ZM-4.7775 67V61.624L-5.0175 60.616V51.448C-5.0175 49.496 -5.5935 47.992 -6.7455 46.936C-7.8655 45.848 -9.5615 45.304 -11.8335 45.304C-13.3375 45.304 -14.8095 45.56 -16.2495 46.072C-17.6895 46.552 -18.9055 47.208 -19.8975 48.04L-21.8175 44.584C-20.5055 43.528 -18.9375 42.728 -17.1135 42.184C-15.2575 41.608 -13.3215 41.32 -11.3055 41.32C-7.8175 41.32 -5.1295 42.168 -3.2415 43.864C-1.3535 45.56 -0.409498 48.152 -0.409498 51.64V67H-4.7775ZM-13.1295 67.288C-15.0175 67.288 -16.6815 66.968 -18.1215 66.328C-19.5295 65.688 -20.6175 64.808 -21.3855 63.688C-22.1535 62.536 -22.5375 61.24 -22.5375 59.8C-22.5375 58.424 -22.2175 57.176 -21.5775 56.056C-20.9055 54.936 -19.8335 54.04 -18.3615 53.368C-16.8575 52.696 -14.8415 52.36 -12.3135 52.36H-4.2495V55.672H-12.1215C-14.4255 55.672 -15.9775 56.056 -16.7775 56.824C-17.5775 57.592 -17.9775 58.52 -17.9775 59.608C-17.9775 60.856 -17.4815 61.864 -16.4895 62.632C-15.4975 63.368 -14.1215 63.736 -12.3615 63.736C-10.6335 63.736 -9.1295 63.352 -7.8495 62.584C-6.5375 61.816 -5.5935 60.696 -5.0175 59.224L-4.1055 62.392C-4.7135 63.896 -5.7855 65.096 -7.3215 65.992C-8.8575 66.856 -10.7935 67.288 -13.1295 67.288ZM7.734 67V33.4H15.51V60.664H32.358V67H7.734ZM52.2023 67V61.96L51.7223 60.856V51.832C51.7223 50.232 51.2263 48.984 50.2343 48.088C49.2743 47.192 47.7863 46.744 45.7703 46.744C44.3943 46.744 43.0343 46.968 41.6903 47.416C40.3783 47.832 39.2583 48.408 38.3303 49.144L35.6423 43.912C37.0503 42.92 38.7463 42.152 40.7303 41.608C42.7143 41.064 44.7303 40.792 46.7783 40.792C50.7143 40.792 53.7703 41.72 55.9463 43.576C58.1223 45.432 59.2103 48.328 59.2103 52.264V67H52.2023ZM44.3303 67.384C42.3143 67.384 40.5863 67.048 39.1463 66.376C37.7063 65.672 36.6023 64.728 35.8343 63.544C35.0663 62.36 34.6823 61.032 34.6823 59.56C34.6823 58.024 35.0503 56.68 35.7863 55.528C36.5543 54.376 37.7543 53.48 39.3863 52.84C41.0183 52.168 43.1463 51.832 45.7703 51.832H52.6343V56.2H46.5863C44.8263 56.2 43.6103 56.488 42.9383 57.064C42.2983 57.64 41.9783 58.36 41.9783 59.224C41.9783 60.184 42.3463 60.952 43.0823 61.528C43.8503 62.072 44.8903 62.344 46.2023 62.344C47.4503 62.344 48.5703 62.056 49.5623 61.48C50.5543 60.872 51.2743 59.992 51.7223 58.84L52.8743 62.296C52.3303 63.96 51.3383 65.224 49.8983 66.088C48.4583 66.952 46.6023 67.384 44.3303 67.384ZM65.9873 67V41.176H73.1393V48.472L72.1313 46.36C72.8993 44.536 74.1313 43.16 75.8273 42.232C77.5233 41.272 79.5873 40.792 82.0193 40.792V47.704C81.6993 47.672 81.4113 47.656 81.1553 47.656C80.8993 47.624 80.6273 47.608 80.3393 47.608C78.2913 47.608 76.6273 48.2 75.3473 49.384C74.0993 50.536 73.4753 52.344 73.4753 54.808V67H65.9873Z" fill="#564FCC"/>
<path d="M4 40L45.9355 17L84 40" stroke="#564FCC" stroke-width="8"/>
</svg>
